<svg width="3808" height="1348" viewBox="0 0 3808 1348" fill="none" xmlns="http://www.w3.org/2000/svg">
<path d="M549.172 539.38C546.09 551.107 552.545 562.691 560.436 571.897L687.491 720.128C693.304 726.909 697.738 734.804 699.858 743.48C716.277 810.676 712.202 907.805 585.288 853.124C577.152 849.618 570.029 844.076 564.245 837.365L355.198 594.791C319.961 553.63 276.059 457.483 376.233 396.704C380.003 394.416 384.147 392.65 388.351 391.322L440.117 374.975C459.48 369.879 499.889 346.236 506.615 292.426C511.958 264.739 505.725 208.712 441.567 196.121C435.105 194.852 428.419 195.23 421.954 196.487L166.568 246.125C162.445 246.927 158.441 248.187 154.454 249.508C125.082 259.236 66.908 263.885 28.138 215.992C0.649771 182.507 -29.5346 106.471 64.516 65.4878C68.2122 63.8771 72.1691 62.7378 76.1273 61.9698L377.441 3.50577C466.821 -10.8535 653.172 22.1756 694.44 265.432C695.749 273.149 698.27 280.765 702.099 287.592L714.642 309.959C719.155 318.007 721.116 327.236 720.266 336.423C719.924 340.111 719.166 343.721 717.849 347.182C701.096 391.208 651.963 478.32 573.015 512.857C565.624 515.423 553.275 523.771 549.172 539.38Z" fill="white"/>
<path d="M77.041 816.67V390.408C77.7369 369.891 93.2224 328.465 149.597 326.899H239.64C252.037 327.914 277.419 335.989 279.768 360.176V512.857V779.071C280.396 815.82 267.658 893.937 212.906 922.762C208.648 925.003 204.466 927.427 200.224 929.7C183.817 938.493 153.322 945.287 124.074 922.235C121.464 920.178 118.793 918.192 116.208 916.104C101.076 903.88 77.041 871.332 77.041 816.67Z" fill="white"/>
<path d="M754.61 336.317C753.829 340.03 753.509 343.883 753.509 347.677V608.273C757.788 684.337 809.354 838.681 981.385 847.541C1068.04 856.551 1246.49 821.311 1267.03 608.273V337.035C1267.03 327.349 1264.98 317.721 1260.14 309.335C1228.34 254.313 1160.28 194.505 1089.36 307.931C1083.58 317.181 1080.88 328.043 1080.88 338.953V593.164C1080.88 603.1 1078.81 613.049 1073.3 621.316C1051.27 654.351 1007.31 685.762 956.275 624.064C948.089 614.167 944.476 601.404 944.476 588.561V341.975C942.426 319.4 928.695 273.141 890.309 261.385C886.891 260.338 883.462 259.342 880.071 258.211C842.809 245.784 773.548 246.287 754.61 336.317Z" fill="white"/>
<path d="M1289.25 88.8657C1283.94 97.8607 1281.48 108.234 1281.48 118.681V592.595C1281.48 597.679 1282.04 602.712 1283.37 607.618C1309.62 704.132 1409.87 876.444 1620.08 847.541C1698.71 844.916 1861.76 787.932 1884.87 580.992C1895.99 510.552 1873.45 349.29 1696.06 262.618C1692.54 260.898 1688.8 259.527 1685 258.591C1634.78 246.226 1542.16 233.956 1518.68 270.444C1516.4 273.995 1514.58 277.823 1512.45 281.468C1489.72 320.271 1471.53 395.029 1553.2 431.619C1561.16 435.182 1569.99 436.093 1578.7 436.407C1629.71 438.247 1706.01 468.259 1692.65 579.022C1691.6 587.744 1688.32 596.094 1682.94 603.041C1644.87 652.219 1564.45 704.568 1486.15 596.48C1479.01 586.633 1475.65 574.534 1475.65 562.376V117.996C1475.65 107.986 1473.45 98.0472 1468.34 89.4393C1433.81 31.256 1360.87 -32.3725 1289.25 88.8657Z" fill="white"/>
<path d="M1907.36 307.257C1900.79 316.866 1897.71 328.469 1897.71 340.111V750.404C1897.71 759.326 1899.46 768.204 1903.55 776.131C1935.16 837.309 2005.77 906.187 2082.27 778.029C2087.73 768.899 2090.28 758.366 2090.28 747.733V338.157C2090.28 327.754 2087.92 317.418 2082.32 308.647C2049.16 256.675 1979.67 201.582 1907.36 307.257Z" fill="white"/>
<path d="M2393.94 657.835C2390.81 657.763 2387.64 657.586 2384.57 656.988C2347.42 649.757 2283.85 617.525 2294.41 537.779C2305.41 454.619 2370.84 435.867 2402.18 436.887C2434.53 435.613 2499.25 413.804 2499.25 336.758C2496.24 299.92 2467.35 231.283 2376.21 246.499C2373.17 247.006 2370.06 247.384 2366.99 247.61C2315.94 251.377 2208.74 280.43 2153 371.153C2122.43 415.485 2073.51 534.875 2122.43 657.781C2145.16 725.209 2234.87 857.369 2412.71 851.352C2415.84 851.246 2419 850.897 2422.03 850.127C2450.83 842.816 2499.45 815.868 2498.65 756.451C2498.6 753.363 2498.67 750.27 2498.74 747.183C2499.42 715.292 2479.66 659.814 2393.94 657.835Z" fill="white"/>
<path fill-rule="evenodd" clip-rule="evenodd" d="M2524.1 456.19C2539.88 392.379 2615.66 261.272 2792.48 247.33C2874.93 242.398 3051.4 277.265 3097.71 456.19C3125.77 542.143 3133.49 736.154 2939.83 824.564C2859.22 859.578 2668.4 884.739 2550.08 705.274C2524.63 670.57 2483.8 572.167 2524.1 456.19ZM2810.5 691.461C2890.84 691.461 2955.96 626.333 2955.96 545.994C2955.96 465.654 2890.84 400.526 2810.5 400.526C2730.16 400.526 2665.03 465.654 2665.03 545.994C2665.03 626.333 2730.16 691.461 2810.5 691.461Z" fill="white"/>
<path d="M3124.02 751.795V465.49C3124.02 459.322 3124.86 453.189 3126.81 447.338C3160.53 346.274 3276.8 182.639 3498.79 274.158C3551 292.957 3653.44 370.909 3645.42 532.327V826.839C3642.91 849.398 3652.43 896.269 3710.58 903.287C3759.04 902.452 3842.93 932.112 3790.79 1057.44C3777.42 1081.25 3719.61 1116.09 3595.29 1064.96C3545.99 1044.9 3448.91 972.466 3454.92 843.131V503.458C3454.92 489.655 3450.76 475.903 3440.95 466.2C3414.23 439.795 3370.77 417.209 3333.8 460.353C3326.26 469.148 3323.19 480.794 3322.93 492.374L3317.07 751.795C3317.48 777.227 3304.28 831.1 3248.14 843.131C3177.96 858.17 3124.02 815.86 3124.02 751.795Z" fill="white"/>
<path d="M2005.43 132.342C2008.47 129.531 2012.56 128.183 2016.18 126.177L2081.13 90.2109C2083.14 88.82 2086.49 87.4578 2089.82 88.104C2097.35 89.5691 2097.62 99.9075 2097.62 107.582V172.929C2097.62 177.528 2097.33 182.219 2095.34 186.363C2094.21 188.719 2092.69 191.02 2090.8 192.356L2015.17 233.581C2010.05 235.68 1999.71 237.002 1999.25 225.499V149.26C1999.25 145.775 1999.39 142.226 2000.8 139.037C2001.8 136.753 2003.31 134.303 2005.43 132.342Z" fill="#F3BA2F"/>
<path d="M1900.96 68.6547C1894.52 62.4132 1905.46 54.2923 1913.43 50.1761L1979.59 16.0098C1982.54 14.4444 1988.63 12.4039 1994.21 13.674C1997.84 14.5014 2000.91 16.8786 2004.21 18.6064L2070.52 53.3183C2074.46 55.3801 2079.15 57.569 2080.03 61.9277C2080.48 64.1638 2079.75 66.6428 2076.45 68.7972L1999.25 111.027C1996.9 112.081 1992.52 113.307 1988.18 112.837C1982.93 112.27 1978.57 108.629 1973.86 106.229L1902.57 69.8769C1902.06 69.583 1901.5 69.173 1900.96 68.6547Z" fill="#F3BA2F"/>
<path d="M1895.52 90.2109L1962.28 126.054C1966.17 128.14 1970.56 129.592 1973.67 132.728C1977.19 136.29 1980.38 142.642 1979.59 152.887C1978.37 168.785 1979.09 207.919 1979.59 225.499C1979.51 229.52 1976.39 236.765 1964.57 233.581C1953.53 230.611 1915.26 207.952 1893.86 194.766C1890.95 192.977 1887.72 191.563 1885.43 189.034C1883.14 186.502 1881.13 182.473 1881.55 176.72C1882.17 168.243 1881.9 130.148 1881.63 107.199C1881.58 102.947 1881.66 98.5575 1883.6 94.7747C1885.79 90.5094 1889.63 87.0501 1895.52 90.2109Z" fill="#F3BA2F"/>
<path d="M444.441 1262.68C383.771 1262.68 342.516 1217.48 342.516 1150.74C342.516 1084 384.378 1038.5 445.654 1038.5C492.37 1038.5 529.075 1066.71 537.872 1109.79H514.514C505.414 1078.54 478.719 1059.43 444.744 1059.43C397.118 1059.43 365.267 1095.83 365.267 1150.74C365.267 1205.34 397.118 1241.75 444.744 1241.75C479.022 1241.75 506.324 1223.24 515.727 1194.12H539.085C529.075 1235.07 491.156 1262.68 444.441 1262.68ZM894.766 1150.74C894.766 1216.57 851.994 1262.98 791.324 1262.98C730.351 1262.98 687.882 1216.57 687.882 1150.74C687.882 1084.91 730.655 1038.2 791.324 1038.2C852.297 1038.2 894.766 1084.61 894.766 1150.74ZM872.318 1150.74C872.318 1096.44 839.253 1059.43 791.324 1059.43C743.395 1059.43 710.634 1096.44 710.634 1150.74C710.634 1205.04 743.395 1242.05 791.324 1242.05C839.253 1242.05 872.318 1204.74 872.318 1150.74ZM1080.58 1259.34H1058.74V1042.14H1080.89L1200.41 1222.94V1042.14H1221.94V1259.34H1200.41L1080.58 1078.54V1259.34ZM1383.96 1098.57C1383.96 1062.16 1413.08 1038.2 1456.76 1038.2C1495.89 1038.2 1521.68 1060.04 1525.01 1096.44H1502.87C1500.44 1071.87 1483.76 1057.92 1456.46 1057.92C1425.82 1057.92 1405.8 1073.69 1405.8 1098.26C1405.8 1117.37 1417.02 1129.51 1439.77 1135.27L1477.08 1144.37C1511.06 1152.56 1528.65 1171.98 1528.65 1201.4C1528.65 1239.02 1499.53 1262.98 1454.64 1262.98C1412.47 1262.98 1383.96 1240.84 1381.23 1205.34H1403.67C1404.89 1228.09 1424.91 1242.96 1454.64 1242.96C1486.49 1242.96 1506.81 1227.49 1506.81 1202.61C1506.81 1183.2 1495.89 1170.46 1472.53 1165L1435.83 1155.9C1401.85 1147.71 1383.96 1128.29 1383.96 1098.57ZM1690.79 1183.81V1042.14H1712.63V1182.9C1712.63 1221.12 1733.56 1241.75 1771.48 1241.75C1808.48 1241.75 1829.42 1220.51 1829.42 1182.9V1042.14H1851.26V1183.81C1851.26 1232.95 1820.92 1262.98 1771.48 1262.98C1721.12 1262.98 1690.79 1233.25 1690.79 1183.81ZM2048.85 1042.14V1239.32H2148.65V1259.34H2027V1042.14H2048.85ZM2261.04 1062.16V1042.14H2416.66V1062.16H2349.62V1259.34H2327.78V1062.16H2261.04ZM2592.94 1042.14V1259.34H2571.1V1042.14H2592.94ZM2791.97 1259.34H2770.13V1042.14H2792.27L2911.79 1222.94V1042.14H2933.33V1259.34H2911.79L2791.97 1078.54V1259.34ZM3201.76 1059.13C3151.7 1059.13 3120.16 1096.14 3120.16 1151.65C3120.16 1208.07 3153.52 1242.35 3202.36 1242.35C3238.77 1242.35 3274.26 1224.76 3274.26 1172.58V1161.36H3195.69V1141.94H3294.88V1259.64H3277.59L3275.47 1225.06C3263.94 1246.6 3236.64 1262.98 3201.45 1262.98C3139.87 1262.98 3097.4 1218.69 3097.4 1151.65C3097.4 1085.22 3139.87 1038.5 3202.06 1038.5C3247.87 1038.5 3283.36 1064.59 3291.85 1104.03H3268.19C3259.09 1074.3 3233.61 1059.13 3201.76 1059.13Z" fill="white"/>
</svg>
